# xmcd
#
# Track frame offsets: 
#        150
#        14530
#        26975
#        41880
#        53652
#        66655
#        78340
#        88555
#        102752
#        117190
#        128802
#        140372
#        154177
#        167882
#        176502
#        189967
#        205820
#        218180
#        231702
#        243897
#        256432
#        267002
#        281560
#        295227
#
# Disc length: 4139 seconds
#
# Revision: 2
# Processed by: cddbd v1.5.2PL0 Copyright (c) Steve Scherf et al.
# Submitted via: ExactAudioCopyFreeDBPlugin 1.0
#
DISCID=64102918
DTITLE=Rosco Gordon - Bootin':  The Best of the RPM Years
DYEAR=1998
DGENRE=Rhythm and Blues
TTITLE0=No More Doggin'
TTITLE1=Roscoe's Boogie
TTITLE2=City Woman
TTITLE3=Ouch! Pretty Baby
TTITLE4=Saddled the Cow (And Milked the Horse)
TTITLE5=Dime a Dozen
TTITLE6=A New Remedy for Love
TTITLE7=Booted
TTITLE8=Cold Cold Winter
TTITLE9=Maria
TTITLE10=New Orleans Wimmen
TTITLE11=I Remember Your Misses
TTITLE12=Two Kinds of Women
TTITLE13=What You Got on Your Mind
TTITLE14=Dream Baby (aka "Dream On Baby")
TTITLE15=Trying
TTITLE16=Lucille (Looking for My Baby)
TTITLE17=Blues for My Baby
TTITLE18=Just in from Texas
TTITLE19=I'm in Love
TTITLE20=Tomorrow May Be Too Late
TTITLE21=We're All Loaded (Whiskey Made Me Drunk)
TTITLE22=Why Do I Love You Baby?
TTITLE23=Throwin' My Money Away
EXTD=
EXTT0=
EXTT1=
EXTT2=
EXTT3=
EXTT4=
EXTT5=
EXTT6=
EXTT7=
EXTT8=
EXTT9=
EXTT10=
EXTT11=
EXTT12=
EXTT13=
EXTT14=
EXTT15=
EXTT16=
EXTT17=
EXTT18=
EXTT19=
EXTT20=
EXTT21=
EXTT22=
EXTT23=
PLAYORDER=
